<svg class="main-svg" xmlns="http://www.w3.org/2000/svg" xmlns:xlink="http://www.w3.org/1999/xlink" width="1500" height="1050" style="" viewBox="0 0 1000 700"><rect x="0" y="0" width="1000" height="700" style="fill: rgb(255, 255, 255); fill-opacity: 1;"/><defs id="defs-0f21ea"><g class="clips"><clipPath id="clip0f21eapolar-for-traces"><path d="M235,0A235,235 0,1,0 -235,-2.87791997799628e-14A235,235 0,1,0 235,5.75583995599256e-14Z" transform="translate(235,235)"/></clipPath></g><g class="gradients"/><g class="patterns"/></defs><g class="bglayer"/><g class="layer-below"><g class="imagelayer"/><g class="shapelayer"/></g><g class="cartesianlayer"/><g class="polarlayer"><g class="polar"><g class="polarsublayer draglayer"/><g class="polarsublayer plotbg"><path d="M235,0A235,235 0,1,0 -235,-2.87791997799628e-14A235,235 0,1,0 235,5.75583995599256e-14Z" transform="translate(500,385)" style="fill: rgb(255, 255, 255); fill-opacity: 1;"/></g><g class="polarsublayer backplot"><g class="maplayer"/></g><g class="polarsublayer angular-grid" style="fill: none;"><path class="angularaxisgrid" d="M500,385L500,150" style="stroke: rgb(100, 100, 100); stroke-opacity: 0.1; stroke-width: 1px;"/><path class="angularaxisgrid" d="M500,385L296.48403011065693,267.4999999999999" style="stroke: rgb(100, 100, 100); stroke-opacity: 0.1; stroke-width: 1px;"/><path class="angularaxisgrid" d="M500,385L296.4840301106569,502.49999999999994" style="stroke: rgb(100, 100, 100); stroke-opacity: 0.1; stroke-width: 1px;"/><path class="angularaxisgrid" d="M500,385L499.99999999999994,620" style="stroke: rgb(100, 100, 100); stroke-opacity: 0.1; stroke-width: 1px;"/><path class="angularaxisgrid" d="M500,385L703.5159698893431,502.5000000000001" style="stroke: rgb(100, 100, 100); stroke-opacity: 0.1; stroke-width: 1px;"/><path class="angularaxisgrid" d="M500,385L703.5159698893431,267.5" style="stroke: rgb(100, 100, 100); stroke-opacity: 0.1; stroke-width: 1px;"/></g><g class="polarsublayer radial-grid" transform="translate(500,385)" style="fill: none;"><path class="xgrid" d="M39.17,0A39.17,39.17 0,1,0 -39.17,-4.796941512260183e-15A39.17,39.17 0,1,0 39.17,9.593883024520365e-15Z" style="stroke: rgb(100, 100, 100); stroke-opacity: 0.2; stroke-width: 1px;"/><path class="xgrid" d="M78.33,0A78.33,78.33 0,1,0 -78.33,-9.592658377721217e-15A78.33,78.33 0,1,0 78.33,1.9185316755442434e-14Z" style="stroke: rgb(100, 100, 100); stroke-opacity: 0.2; stroke-width: 1px;"/><path class="xgrid" d="M117.5,0A117.5,117.5 0,1,0 -117.5,-1.43895998899814e-14A117.5,117.5 0,1,0 117.5,2.87791997799628e-14Z" style="stroke: rgb(100, 100, 100); stroke-opacity: 0.2; stroke-width: 1px;"/><path class="xgrid" d="M156.67,0A156.67,156.67 0,1,0 -156.67,-1.9186541402241582e-14A156.67,156.67 0,1,0 156.67,3.8373082804483165e-14Z" style="stroke: rgb(100, 100, 100); stroke-opacity: 0.2; stroke-width: 1px;"/><path class="xgrid" d="M195.83,0A195.83,195.83 0,1,0 -195.83,-2.398225826770262e-14A195.83,195.83 0,1,0 195.83,4.796451653540524e-14Z" style="stroke: rgb(100, 100, 100); stroke-opacity: 0.2; stroke-width: 1px;"/></g><g class="polarsublayer frontplot" transform="translate(265,150)"><g class="barlayer"/><g class="scatterlayer"><g class="trace scatter traced8dad4" style="stroke-miterlimit: 2; opacity: 1;"><g class="fills" clip-path="url(#clip0f21eapolar-for-traces)"><g><path class="js-fill" d="M235,138.22L183.14,205.06L157.19,279.92L235,407.8L330.79,290.3L330.79,179.7L235,138.22Z" style="fill: rgb(0, 92, 230); fill-opacity: 0.2; stroke-width: 0;"/></g></g><g class="errorbars"/><g class="lines"><path class="js-line" d="M235,138.22L183.14,205.06L157.19,279.92L235,407.8L330.79,290.3L330.79,179.7L235,138.22" clip-path="url(#clip0f21eapolar-for-traces)" style="vector-effect: none; fill: none; stroke: rgb(0, 92, 230); stroke-opacity: 0.9; stroke-width: 3.5px; opacity: 1;"/></g><g class="points"><path class="point" transform="translate(235,138.22)" d="M8,0A8,8 0 1,1 0,-8A8,8 0 0,1 8,0Z" style="opacity: 1; stroke-width: 2px; fill: rgb(0, 92, 230); fill-opacity: 0.9; stroke: rgb(0, 0, 0); stroke-opacity: 1;"/><path class="point" transform="translate(183.14,205.06)" d="M8,0A8,8 0 1,1 0,-8A8,8 0 0,1 8,0Z" style="opacity: 1; stroke-width: 2px; fill: rgb(0, 92, 230); fill-opacity: 0.9; stroke: rgb(0, 0, 0); stroke-opacity: 1;"/><path class="point" transform="translate(157.19,279.92)" d="M8,0A8,8 0 1,1 0,-8A8,8 0 0,1 8,0Z" style="opacity: 1; stroke-width: 2px; fill: rgb(0, 92, 230); fill-opacity: 0.9; stroke: rgb(0, 0, 0); stroke-opacity: 1;"/><path class="point" transform="translate(235,407.8)" d="M8,0A8,8 0 1,1 0,-8A8,8 0 0,1 8,0Z" style="opacity: 1; stroke-width: 2px; fill: rgb(0, 92, 230); fill-opacity: 0.9; stroke: rgb(0, 0, 0); stroke-opacity: 1;"/><path class="point" transform="translate(330.79,290.3)" d="M8,0A8,8 0 1,1 0,-8A8,8 0 0,1 8,0Z" style="opacity: 1; stroke-width: 2px; fill: rgb(0, 92, 230); fill-opacity: 0.9; stroke: rgb(0, 0, 0); stroke-opacity: 1;"/><path class="point" transform="translate(330.79,179.7)" d="M8,0A8,8 0 1,1 0,-8A8,8 0 0,1 8,0Z" style="opacity: 1; stroke-width: 2px; fill: rgb(0, 92, 230); fill-opacity: 0.9; stroke: rgb(0, 0, 0); stroke-opacity: 1;"/><path class="point" transform="translate(235,138.22)" d="M8,0A8,8 0 1,1 0,-8A8,8 0 0,1 8,0Z" style="opacity: 1; stroke-width: 2px; fill: rgb(0, 92, 230); fill-opacity: 0.9; stroke: rgb(0, 0, 0); stroke-opacity: 1;"/></g><g class="text"/></g><g class="trace scatter trace4f7683" style="stroke-miterlimit: 2; opacity: 1;"><g class="fills" clip-path="url(#clip0f21eapolar-for-traces)"><g><path class="js-fill" d="M235,131.33L127.27,172.8L145.22,286.84L235,426.21L356.7,305.27L364.71,160.11L235,131.33Z" style="fill: rgb(255, 0, 0); fill-opacity: 0.2; stroke-width: 0;"/></g></g><g class="errorbars"/><g class="lines"><path class="js-line" d="M235,131.33L127.27,172.8L145.22,286.84L235,426.21L356.7,305.27L364.71,160.11L235,131.33" clip-path="url(#clip0f21eapolar-for-traces)" style="vector-effect: none; fill: none; stroke: rgb(255, 0, 0); stroke-opacity: 0.9; stroke-width: 3.5px; opacity: 1;"/></g><g class="points"><path class="point" transform="translate(235,131.33)" d="M8,8H-8V-8H8Z" style="opacity: 1; stroke-width: 2px; fill: rgb(255, 0, 0); fill-opacity: 0.9; stroke: rgb(0, 0, 0); stroke-opacity: 1;"/><path class="point" transform="translate(127.27,172.8)" d="M8,8H-8V-8H8Z" style="opacity: 1; stroke-width: 2px; fill: rgb(255, 0, 0); fill-opacity: 0.9; stroke: rgb(0, 0, 0); stroke-opacity: 1;"/><path class="point" transform="translate(145.22,286.84)" d="M8,8H-8V-8H8Z" style="opacity: 1; stroke-width: 2px; fill: rgb(255, 0, 0); fill-opacity: 0.9; stroke: rgb(0, 0, 0); stroke-opacity: 1;"/><path class="point" transform="translate(235,426.21)" d="M8,8H-8V-8H8Z" style="opacity: 1; stroke-width: 2px; fill: rgb(255, 0, 0); fill-opacity: 0.9; stroke: rgb(0, 0, 0); stroke-opacity: 1;"/><path class="point" transform="translate(356.7,305.27)" d="M8,8H-8V-8H8Z" style="opacity: 1; stroke-width: 2px; fill: rgb(255, 0, 0); fill-opacity: 0.9; stroke: rgb(0, 0, 0); stroke-opacity: 1;"/><path class="point" transform="translate(364.71,160.11)" d="M8,8H-8V-8H8Z" style="opacity: 1; stroke-width: 2px; fill: rgb(255, 0, 0); fill-opacity: 0.9; stroke: rgb(0, 0, 0); stroke-opacity: 1;"/><path class="point" transform="translate(235,131.33)" d="M8,8H-8V-8H8Z" style="opacity: 1; stroke-width: 2px; fill: rgb(255, 0, 0); fill-opacity: 0.9; stroke: rgb(0, 0, 0); stroke-opacity: 1;"/></g><g class="text"/></g><g class="trace scatter trace5c629e" style="stroke-miterlimit: 2; opacity: 1;"><g class="fills" clip-path="url(#clip0f21eapolar-for-traces)"><g><path class="js-fill" d="M235,149.77L155.19,188.92L183.14,264.94L235,389.36L312.81,279.92L314.81,188.92L235,149.77Z" style="fill: rgb(0, 163, 0); fill-opacity: 0.2; stroke-width: 0;"/></g></g><g class="errorbars"/><g class="lines"><path class="js-line" d="M235,149.77L155.19,188.92L183.14,264.94L235,389.36L312.81,279.92L314.81,188.92L235,149.77" clip-path="url(#clip0f21eapolar-for-traces)" style="vector-effect: none; fill: none; stroke: rgb(0, 163, 0); stroke-opacity: 0.9; stroke-width: 3.5px; opacity: 1;"/></g><g class="points"><path class="point" transform="translate(235,149.77)" d="M10.4,0L0,10.4L-10.4,0L0,-10.4Z" style="opacity: 1; stroke-width: 2px; fill: rgb(0, 163, 0); fill-opacity: 0.9; stroke: rgb(0, 0, 0); stroke-opacity: 1;"/><path class="point" transform="translate(155.19,188.92)" d="M10.4,0L0,10.4L-10.4,0L0,-10.4Z" style="opacity: 1; stroke-width: 2px; fill: rgb(0, 163, 0); fill-opacity: 0.9; stroke: rgb(0, 0, 0); stroke-opacity: 1;"/><path class="point" transform="translate(183.14,264.94)" d="M10.4,0L0,10.4L-10.4,0L0,-10.4Z" style="opacity: 1; stroke-width: 2px; fill: rgb(0, 163, 0); fill-opacity: 0.9; stroke: rgb(0, 0, 0); stroke-opacity: 1;"/><path class="point" transform="translate(235,389.36)" d="M10.4,0L0,10.4L-10.4,0L0,-10.4Z" style="opacity: 1; stroke-width: 2px; fill: rgb(0, 163, 0); fill-opacity: 0.9; stroke: rgb(0, 0, 0); stroke-opacity: 1;"/><path class="point" transform="translate(312.81,279.92)" d="M10.4,0L0,10.4L-10.4,0L0,-10.4Z" style="opacity: 1; stroke-width: 2px; fill: rgb(0, 163, 0); fill-opacity: 0.9; stroke: rgb(0, 0, 0); stroke-opacity: 1;"/><path class="point" transform="translate(314.81,188.92)" d="M10.4,0L0,10.4L-10.4,0L0,-10.4Z" style="opacity: 1; stroke-width: 2px; fill: rgb(0, 163, 0); fill-opacity: 0.9; stroke: rgb(0, 0, 0); stroke-opacity: 1;"/><path class="point" transform="translate(235,149.77)" d="M10.4,0L0,10.4L-10.4,0L0,-10.4Z" style="opacity: 1; stroke-width: 2px; fill: rgb(0, 163, 0); fill-opacity: 0.9; stroke: rgb(0, 0, 0); stroke-opacity: 1;"/></g><g class="text"/></g><g class="trace scatter trace111bdb" style="stroke-miterlimit: 2; opacity: 1;"><g class="fills" clip-path="url(#clip0f21eapolar-for-traces)"><g><path class="js-fill" d="M235,114.72L116.28,166.46L164.75,275.56L235,377.68L346.46,299.35L310.1,191.64L235,114.72Z" style="fill: rgb(163, 0, 163); fill-opacity: 0.2; stroke-width: 0;"/></g></g><g class="errorbars"/><g class="lines"><path class="js-line" d="M235,114.72L116.28,166.46L164.75,275.56L235,377.68L346.46,299.35L310.1,191.64L235,114.72" clip-path="url(#clip0f21eapolar-for-traces)" style="vector-effect: none; fill: none; stroke: rgb(163, 0, 163); stroke-opacity: 0.9; stroke-width: 3.5px; opacity: 1;"/></g><g class="points"><path class="point" transform="translate(235,114.72)" d="M0,4.53l4.53,4.53l4.53,-4.53l-4.53,-4.53l4.53,-4.53l-4.53,-4.53l-4.53,4.53l-4.53,-4.53l-4.53,4.53l4.53,4.53l-4.53,4.53l4.53,4.53Z" style="opacity: 1; stroke-width: 2px; fill: rgb(163, 0, 163); fill-opacity: 0.9; stroke: rgb(0, 0, 0); stroke-opacity: 1;"/><path class="point" transform="translate(116.28,166.46)" d="M0,4.53l4.53,4.53l4.53,-4.53l-4.53,-4.53l4.53,-4.53l-4.53,-4.53l-4.53,4.53l-4.53,-4.53l-4.53,4.53l4.53,4.53l-4.53,4.53l4.53,4.53Z" style="opacity: 1; stroke-width: 2px; fill: rgb(163, 0, 163); fill-opacity: 0.9; stroke: rgb(0, 0, 0); stroke-opacity: 1;"/><path class="point" transform="translate(164.75,275.56)" d="M0,4.53l4.53,4.53l4.53,-4.53l-4.53,-4.53l4.53,-4.53l-4.53,-4.53l-4.53,4.53l-4.53,-4.53l-4.53,4.53l4.53,4.53l-4.53,4.53l4.53,4.53Z" style="opacity: 1; stroke-width: 2px; fill: rgb(163, 0, 163); fill-opacity: 0.9; stroke: rgb(0, 0, 0); stroke-opacity: 1;"/><path class="point" transform="translate(235,377.68)" d="M0,4.53l4.53,4.53l4.53,-4.53l-4.53,-4.53l4.53,-4.53l-4.53,-4.53l-4.53,4.53l-4.53,-4.53l-4.53,4.53l4.53,4.53l-4.53,4.53l4.53,4.53Z" style="opacity: 1; stroke-width: 2px; fill: rgb(163, 0, 163); fill-opacity: 0.9; stroke: rgb(0, 0, 0); stroke-opacity: 1;"/><path class="point" transform="translate(346.46,299.35)" d="M0,4.53l4.53,4.53l4.53,-4.53l-4.53,-4.53l4.53,-4.53l-4.53,-4.53l-4.53,4.53l-4.53,-4.53l-4.53,4.53l4.53,4.53l-4.53,4.53l4.53,4.53Z" style="opacity: 1; stroke-width: 2px; fill: rgb(163, 0, 163); fill-opacity: 0.9; stroke: rgb(0, 0, 0); stroke-opacity: 1;"/><path class="point" transform="translate(310.1,191.64)" d="M0,4.53l4.53,4.53l4.53,-4.53l-4.53,-4.53l4.53,-4.53l-4.53,-4.53l-4.53,4.53l-4.53,-4.53l-4.53,4.53l4.53,4.53l-4.53,4.53l4.53,4.53Z" style="opacity: 1; stroke-width: 2px; fill: rgb(163, 0, 163); fill-opacity: 0.9; stroke: rgb(0, 0, 0); stroke-opacity: 1;"/><path class="point" transform="translate(235,114.72)" d="M0,4.53l4.53,4.53l4.53,-4.53l-4.53,-4.53l4.53,-4.53l-4.53,-4.53l-4.53,4.53l-4.53,-4.53l-4.53,4.53l4.53,4.53l-4.53,4.53l4.53,4.53Z" style="opacity: 1; stroke-width: 2px; fill: rgb(163, 0, 163); fill-opacity: 0.9; stroke: rgb(0, 0, 0); stroke-opacity: 1;"/></g><g class="text"/></g></g></g><g class="polarsublayer angular-line"><path d="M235,0A235,235 0,1,0 -235,-2.87791997799628e-14A235,235 0,1,0 235,5.75583995599256e-14Z" transform="translate(500,385)" stroke-width="1" style="fill: none; stroke: rgb(128, 128, 128); stroke-opacity: 1;"/></g><g class="polarsublayer radial-line"><line x1="0" y1="0" x2="235" y2="0" transform="translate(500,385)" stroke-width="2" style="fill: none; stroke: rgb(128, 128, 128); stroke-opacity: 1;"/></g><g class="polarsublayer angular-axis"><g class="angularaxistick"><text text-anchor="middle" x="4.592425496802575e-16" y="-14.5" transform="translate(500,150)" style="font-family: 'Open Sans', verdana, arial, sans-serif; font-size: 35px; fill: rgb(51, 51, 51); fill-opacity: 1; white-space: pre; opacity: 1;">MD</text></g><g class="angularaxistick"><text text-anchor="end" x="-6.495190528383288" y="3.3588111963593663" transform="translate(296.48403011065693,267.4999999999999)" style="font-family: 'Open Sans', verdana, arial, sans-serif; font-size: 35px; fill: rgb(51, 51, 51); fill-opacity: 1; white-space: pre; opacity: 1;">PD</text></g><g class="angularaxistick"><text text-anchor="end" x="-6.495190528383291" y="31.858811196359365" transform="translate(296.4840301106569,502.49999999999994)" style="font-family: 'Open Sans', verdana, arial, sans-serif; font-size: 35px; fill: rgb(51, 51, 51); fill-opacity: 1; white-space: pre; opacity: 1;">TD</text></g><g class="angularaxistick"><text text-anchor="middle" x="-1.3777276490407722e-15" y="42.5" transform="translate(499.99999999999994,620)" style="font-family: 'Open Sans', verdana, arial, sans-serif; font-size: 35px; fill: rgb(51, 51, 51); fill-opacity: 1; white-space: pre; opacity: 1;">P</text></g><g class="angularaxistick"><text text-anchor="start" x="6.495190528383288" y="31.85881119635939" transform="translate(703.5159698893431,502.5000000000001)" style="font-family: 'Open Sans', verdana, arial, sans-serif; font-size: 35px; fill: rgb(51, 51, 51); fill-opacity: 1; white-space: pre; opacity: 1;">E</text></g><g class="angularaxistick"><text text-anchor="start" x="6.495190528383289" y="3.3588111963593725" transform="translate(703.5159698893431,267.5)" style="font-family: 'Open Sans', verdana, arial, sans-serif; font-size: 35px; fill: rgb(51, 51, 51); fill-opacity: 1; white-space: pre; opacity: 1;">F</text></g></g><g class="polarsublayer radial-axis" transform="translate(500,385)"><g class="xtick"><text text-anchor="middle" x="0" y="31" transform="" style="font-family: 'Open Sans', verdana, arial, sans-serif; font-size: 25px; fill: rgb(51, 51, 51); fill-opacity: 1; white-space: pre; opacity: 1;">0</text></g><g class="xtick"><text text-anchor="middle" x="0" y="31" transform="translate(39.17,0)" style="font-family: 'Open Sans', verdana, arial, sans-serif; font-size: 25px; fill: rgb(51, 51, 51); fill-opacity: 1; white-space: pre; opacity: 1;">10</text></g><g class="xtick"><text text-anchor="middle" x="0" y="31" transform="translate(78.33,0)" style="font-family: 'Open Sans', verdana, arial, sans-serif; font-size: 25px; fill: rgb(51, 51, 51); fill-opacity: 1; white-space: pre; opacity: 1;">20</text></g><g class="xtick"><text text-anchor="middle" x="0" y="31" transform="translate(117.5,0)" style="font-family: 'Open Sans', verdana, arial, sans-serif; font-size: 25px; fill: rgb(51, 51, 51); fill-opacity: 1; white-space: pre; opacity: 1;">30</text></g><g class="xtick"><text text-anchor="middle" x="0" y="31" transform="translate(156.67,0)" style="font-family: 'Open Sans', verdana, arial, sans-serif; font-size: 25px; fill: rgb(51, 51, 51); fill-opacity: 1; white-space: pre; opacity: 1;">40</text></g><g class="xtick"><text text-anchor="middle" x="0" y="31" transform="translate(195.83,0)" style="font-family: 'Open Sans', verdana, arial, sans-serif; font-size: 25px; fill: rgb(51, 51, 51); fill-opacity: 1; white-space: pre; opacity: 1;">50</text></g><g class="xtick"><text text-anchor="middle" x="0" y="31" transform="translate(235,0)" style="font-family: 'Open Sans', verdana, arial, sans-serif; font-size: 25px; fill: rgb(51, 51, 51); fill-opacity: 1; white-space: pre; opacity: 1;">60</text></g></g></g></g><g class="smithlayer"/><g class="ternarylayer"/><g class="geolayer"/><g class="funnelarealayer"/><g class="pielayer"/><g class="iciclelayer"/><g class="treemaplayer"/><g class="sunburstlayer"/><g class="glimages"/><defs id="topdefs-0f21ea"><g class="clips"/><clipPath id="legend0f21ea"><rect width="608" height="52" x="1" y="1"/></clipPath></defs><g class="layer-above"><g class="imagelayer"/><g class="shapelayer"/></g><g class="infolayer"><g class="legend" pointer-events="all" transform="translate(195,25.500000000000043)"><rect class="bg" shape-rendering="crispEdges" style="stroke: rgb(128, 128, 128); stroke-opacity: 1; fill: rgb(255, 255, 255); fill-opacity: 1; stroke-width: 1px;" width="609" height="53" x="0.5" y="0.5"/><g class="scrollbox" transform="" clip-path="url(#legend0f21ea)"><g class="groups"><g class="traces" transform="translate(1,27)" style="opacity: 1;"><text class="legendtext" text-anchor="start" x="50" y="11.7" style="font-family: 'Open Sans', verdana, arial, sans-serif; font-size: 30px; fill: rgb(51, 51, 51); fill-opacity: 1; white-space: pre;">Task 1</text><g class="layers" style="opacity: 1;"><g class="legendfill"><path class="js-fill" d="M5,0h40v6h-40z" style="stroke-width: 0; fill: rgb(0, 92, 230); fill-opacity: 0.2;"/></g><g class="legendlines"><path class="js-line" d="M5,0h40" style="fill: none; stroke: rgb(0, 92, 230); stroke-opacity: 0.9; stroke-width: 5px;"/></g><g class="legendsymbols"><g class="legendpoints"><path class="scatterpts" transform="translate(25,0)" d="M6,0A6,6 0 1,1 0,-6A6,6 0 0,1 6,0Z" style="opacity: 1; stroke-width: 2px; fill: rgb(0, 92, 230); fill-opacity: 0.9; stroke: rgb(0, 0, 0); stroke-opacity: 1;"/></g></g></g><rect class="legendtoggle" x="0" y="-21" width="149.5" height="42" style="fill: rgb(0, 0, 0); fill-opacity: 0;"/></g><g class="traces" transform="translate(153,27)" style="opacity: 1;"><text class="legendtext" text-anchor="start" x="50" y="11.7" style="font-family: 'Open Sans', verdana, arial, sans-serif; font-size: 30px; fill: rgb(51, 51, 51); fill-opacity: 1; white-space: pre;">Task 2</text><g class="layers" style="opacity: 1;"><g class="legendfill"><path class="js-fill" d="M5,0h40v6h-40z" style="stroke-width: 0; fill: rgb(255, 0, 0); fill-opacity: 0.2;"/></g><g class="legendlines"><path class="js-line" d="M5,0h40" style="fill: none; stroke: rgb(255, 0, 0); stroke-opacity: 0.9; stroke-width: 5px;"/></g><g class="legendsymbols"><g class="legendpoints"><path class="scatterpts" transform="translate(25,0)" d="M6,6H-6V-6H6Z" style="opacity: 1; stroke-width: 2px; fill: rgb(255, 0, 0); fill-opacity: 0.9; stroke: rgb(0, 0, 0); stroke-opacity: 1;"/></g></g></g><rect class="legendtoggle" x="0" y="-21" width="149.5" height="42" style="fill: rgb(0, 0, 0); fill-opacity: 0;"/></g><g class="traces" transform="translate(305,27)" style="opacity: 1;"><text class="legendtext" text-anchor="start" x="50" y="11.7" style="font-family: 'Open Sans', verdana, arial, sans-serif; font-size: 30px; fill: rgb(51, 51, 51); fill-opacity: 1; white-space: pre;">Task 3</text><g class="layers" style="opacity: 1;"><g class="legendfill"><path class="js-fill" d="M5,0h40v6h-40z" style="stroke-width: 0; fill: rgb(0, 163, 0); fill-opacity: 0.2;"/></g><g class="legendlines"><path class="js-line" d="M5,0h40" style="fill: none; stroke: rgb(0, 163, 0); stroke-opacity: 0.9; stroke-width: 5px;"/></g><g class="legendsymbols"><g class="legendpoints"><path class="scatterpts" transform="translate(25,0)" d="M7.8,0L0,7.8L-7.8,0L0,-7.8Z" style="opacity: 1; stroke-width: 2px; fill: rgb(0, 163, 0); fill-opacity: 0.9; stroke: rgb(0, 0, 0); stroke-opacity: 1;"/></g></g></g><rect class="legendtoggle" x="0" y="-21" width="149.5" height="42" style="fill: rgb(0, 0, 0); fill-opacity: 0;"/></g><g class="traces" transform="translate(457,27)" style="opacity: 1;"><text class="legendtext" text-anchor="start" x="50" y="11.7" style="font-family: 'Open Sans', verdana, arial, sans-serif; font-size: 30px; fill: rgb(51, 51, 51); fill-opacity: 1; white-space: pre;">Task 4</text><g class="layers" style="opacity: 1;"><g class="legendfill"><path class="js-fill" d="M5,0h40v6h-40z" style="stroke-width: 0; fill: rgb(163, 0, 163); fill-opacity: 0.2;"/></g><g class="legendlines"><path class="js-line" d="M5,0h40" style="fill: none; stroke: rgb(163, 0, 163); stroke-opacity: 0.9; stroke-width: 5px;"/></g><g class="legendsymbols"><g class="legendpoints"><path class="scatterpts" transform="translate(25,0)" d="M0,3.39l3.39,3.39l3.39,-3.39l-3.39,-3.39l3.39,-3.39l-3.39,-3.39l-3.39,3.39l-3.39,-3.39l-3.39,3.39l3.39,3.39l-3.39,3.39l3.39,3.39Z" style="opacity: 1; stroke-width: 2px; fill: rgb(163, 0, 163); fill-opacity: 0.9; stroke: rgb(0, 0, 0); stroke-opacity: 1;"/></g></g></g><rect class="legendtoggle" x="0" y="-21" width="149.5" height="42" style="fill: rgb(0, 0, 0); fill-opacity: 0;"/></g></g></g><rect class="scrollbar" rx="20" ry="3" width="0" height="0" style="fill: rgb(128, 139, 164); fill-opacity: 1;" x="0" y="0"/></g><g class="g-gtitle"/><g class="g-polartitle"/></g></svg>